<?xml version="1.0" encoding="UTF-8" standalone="no"?>
<!-- Created with Inkscape (http://www.inkscape.org/) -->

<svg
   xmlns:dc="http://purl.org/dc/elements/1.1/"
   xmlns:cc="http://creativecommons.org/ns#"
   xmlns:rdf="http://www.w3.org/1999/02/22-rdf-syntax-ns#"
   xmlns:svg="http://www.w3.org/2000/svg"
   xmlns="http://www.w3.org/2000/svg"
   xmlns:sodipodi="http://sodipodi.sourceforge.net/DTD/sodipodi-0.dtd"
   xmlns:inkscape="http://www.inkscape.org/namespaces/inkscape"
   width="117.55798mm"
   height="24.823509mm"
   viewBox="0 0 416.54401 87.957316"
   id="svg2"
   version="1.1"
   inkscape:version="0.92.0 r15299"
   sodipodi:docname="drawing.svg">
  <sodipodi:namedview
     id="base"
     pagecolor="#ffffff"
     bordercolor="#666666"
     borderopacity="1.0"
     inkscape:pageopacity="0.0"
     inkscape:pageshadow="2"
     inkscape:zoom="2"
     inkscape:cx="231.06334"
     inkscape:cy="54.114177"
     inkscape:document-units="px"
     inkscape:current-layer="layer1"
     showgrid="false"
     inkscape:window-width="1440"
     inkscape:window-height="837"
     inkscape:window-x="-8"
     inkscape:window-y="-8"
     inkscape:window-maximized="1"
     fit-margin-top="0"
     fit-margin-left="0"
     fit-margin-right="0"
     fit-margin-bottom="0" />
  <defs
     id="defs4" />
  <metadata
     id="metadata7">
    <rdf:RDF>
      <cc:Work
         rdf:about="">
        <dc:format>image/svg+xml</dc:format>
        <dc:type
           rdf:resource="http://purl.org/dc/dcmitype/StillImage" />
        <dc:title />
      </cc:Work>
    </rdf:RDF>
  </metadata>
  <g
     id="layer1"
     inkscape:groupmode="layer"
     inkscape:label="Camada 1"
     transform="translate(-177.71193,-56.10085)">
    <path
       style="fill:#000000"
       d=""
       id="path3382"
       inkscape:connector-curvature="0" />
    <path
       style="fill:#000000"
       d=""
       id="path3380"
       inkscape:connector-curvature="0" />
    <path
       style="fill:#000000"
       d=""
       id="path3378"
       inkscape:connector-curvature="0" />
    <g
       id="g4245"
       transform="matrix(0.35174515,0,0,0.35174515,357.88362,47.345686)">
      <path
         sodipodi:nodetypes="ssscsssscccsssscsss"
         inkscape:connector-curvature="0"
         id="path3394"
         d="m -410.72223,263.56541 c -1.1,-0.28001 -2.225,-0.84145 -2.5,-1.24765 -0.275,-0.40619 -18.275,-5.65979 -40,-11.67465 l -39.5,-10.93611 -3.19006,-35.45966 c -1.75453,-19.50282 -5.71855,-64.25967 -8.80893,-99.45967 -3.09038,-35.200001 -6.04236,-64.781391 -6.55994,-65.736431 -0.51759,-0.95504 -0.94107,-4.21754 -0.94107,-7.25 l 0,-5.51357 104.5,0 104.5,0 0,5.51357 c 0,3.03246 -0.42342,6.29496 -0.94094,7.25 -0.51752,0.95504 -3.474,30.53643 -6.56995,65.736431 -3.09596,35.2 -7.06003,79.94814 -8.80906,99.44031 l -3.18005,35.4403 -39.5,10.92152 c -21.725,6.00684 -39.725,11.26467 -40,11.68406 -0.70589,1.07654 -6.11555,1.89852 -8.5,1.29155 z"
         style="fill:#f1c547" />
      <path
         sodipodi:nodetypes="ssscsssscccsssscsssssssscccss"
         inkscape:connector-curvature="0"
         id="path3392"
         d="m -409.62441,264.49573 c -1.1,-0.28001 -2.225,-0.84145 -2.5,-1.24765 -0.275,-0.40619 -18.275,-5.65979 -40,-11.67465 l -39.5,-10.93611 -3.19006,-35.45966 c -1.75453,-19.50282 -5.71855,-64.25967 -8.80893,-99.45967 -3.09038,-35.199996 -6.04236,-64.781386 -6.55994,-65.736426 -0.51759,-0.95504 -0.94107,-4.21754 -0.94107,-7.25 l 0,-5.51357 104.5,0 104.5,0 0,5.51357 c 0,3.03246 -0.42342,6.29496 -0.94094,7.25 -0.51752,0.95504 -3.474,30.53643 -6.56995,65.736426 -3.09596,35.2 -7.06003,79.94814 -8.80906,99.44031 l -3.18005,35.4403 -39.5,10.92152 c -21.725,6.00684 -39.725,11.26467 -40,11.68406 -0.70589,1.07654 -6.11555,1.89852 -8.5,1.29155 z m 38.75628,-27.37244 c 17.73405,-5.00209 32.5872,-9.41807 33.00701,-9.8133 0.41981,-0.39522 2.32133,-18.0151 4.22559,-39.15529 9.84851,-109.333436 12.55128,-141.389656 12.0346,-142.736106 -0.49369,-1.28655 -5.87358,-1.39727 -41.29556,-0.84991 -22.40036,0.34614 -41.29042,0.63384 -41.97792,0.63933 -0.97757,0.008 -1.25,8.17203 -1.25,37.46029 -0.53342,39.248416 0,0 -0.24049,114.799686 0.22627,42.50426 0.45128,48.75 1.75628,48.75 0.82322,0 16.00644,-4.09262 33.74049,-9.0947 z"
         style="fill:#eab446" />
      <path
         sodipodi:nodetypes="cssssccccccccssscccccccsscsssssccccccsssscccssssscccssssssscc"
         inkscape:connector-curvature="0"
         id="path4222"
         d="m -417.58646,223.35146 c -18.42619,-3.03521 -33.52581,-10.94629 -45.92066,-24.05898 -21.52762,-22.7744 -27.49408,-55.70445 -15.32766,-84.5964 9.00445,-21.383166 28.37247,-38.600786 50.65257,-45.028726 4.65377,-1.34264 15.47092,-3.08557 19.24894,-3.10151 l 3.00213,-0.0127 0,78.964666 0,78.96466 -1.94255,0.0744 c -1.06841,0.041 -5.43915,-0.50152 -9.71277,-1.20548 z m 8.67877,-18.83046 -0.20217,-6.8407 -5.65107,-0.922 c -19.13113,-3.12133 -35.22536,-16.8864 -40.9883,-35.05646 -0.96134,-3.03102 -1.74788,-6.28921 -1.74788,-7.24043 l 0,-1.7295 22.60426,0 22.60426,0 0,-7.06383 0,-7.06383 -22.86989,0 -22.86989,0 0.86522,-4.0617 c 4.58025,-21.5017 21.05431,-37.154876 42.68551,-40.558526 l 5.72097,-0.90018 0,-6.90789 c 0,-7.979 0.7345,-7.47031 -8.45199,-5.85364 -14.55932,2.56221 -26.01092,8.69295 -36.48069,19.53037 -11.46309,11.865596 -17.5113,25.781606 -18.42234,42.387006 -1.52828,27.85571 15.3793,54.10501 41.63733,64.64269 5.01679,2.01329 15.11376,4.35566 19.09433,4.42964 l 2.67452,0.0497 -0.20218,-6.84072 z m 5.95347,-0.0768 0.20181,-6.85693 3.88511,-0.43337 c 15.68511,-1.74959 31.21766,-12.60423 38.88,-27.17058 2.57497,-4.89509 5.92762,-15.43643 5.37092,-16.88715 -0.35504,-0.92525 -3.4352,-1.07062 -22.68407,-1.07062 l -22.27324,0 0,-6.71064 0,-6.71064 22.60426,0 c 17.80328,0 22.60427,-0.19055 22.60427,-0.89718 0,-0.49344 -0.64947,-3.24083 -1.44325,-6.10531 -5.01539,-18.09861 -18.54197,-31.611666 -36.74651,-36.709766 -2.93861,-0.82295 -6.51467,-1.49626 -7.94681,-1.49626 l -2.60387,0 0,-6.71064 0,-6.71064 3.39887,0 c 4.38239,0 13.17766,2.29374 19.95004,5.20283 14.26738,6.12858 26.72414,18.451476 33.51964,33.159476 4.10422,8.88303 5.50862,15.73845 5.52673,26.97813 0.0129,7.96364 -0.28844,11.05856 -1.54714,15.89362 -3.9953,15.3471 -13.97606,29.81956 -26.36829,38.23496 -8.77001,5.9556 -20.83731,10.45167 -30.79655,11.47428 l -3.73373,0.38338 z"
         style="fill:#ffffff" />
    </g>
    <flowRoot
       xml:space="preserve"
       id="flowRoot4250"
       style="font-style:normal;font-weight:normal;font-size:40px;line-height:125%;font-family:sans-serif;letter-spacing:0px;word-spacing:0px;fill:#000000;fill-opacity:1;stroke:none;stroke-width:1px;stroke-linecap:butt;stroke-linejoin:miter;stroke-opacity:1"><flowRegion
         id="flowRegion4252"><rect
           id="rect4254"
           width="368.70569"
           height="170.71577"
           x="289.91379"
           y="77.56498" /></flowRegion><flowPara
         id="flowPara4256" /></flowRoot>    <a
       id="a3692">
      <g
         aria-label="Erik Paixão"
         transform="matrix(1.0193373,0,0,0.98102953,0.46874999,2.8125)"
         style="font-style:normal;font-weight:normal;font-size:40.77349091px;line-height:125%;font-family:sans-serif;letter-spacing:0px;word-spacing:0px;fill:#000000;fill-opacity:1;stroke:none;stroke-width:1px;stroke-linecap:butt;stroke-linejoin:miter;stroke-opacity:1"
         id="text4258">
        <path
           d="M 293.4819,103.65314 H 263.54416 V 58.212463 h 29.93774 v 5.371094 h -23.89526 v 12.451172 h 23.89526 v 5.371094 h -23.89526 v 16.87622 h 23.89526 z"
           style="font-style:normal;font-variant:normal;font-weight:normal;font-stretch:normal;font-size:62.5px;font-family:'Open Sans';-inkscape-font-specification:'Open Sans';fill:#4d4d4d"
           id="path3696"
           inkscape:connector-curvature="0" />
        <path
           d="m 323.90793,75.821106 h -0.30518 q -1.28174,-0.305176 -2.50244,-0.427246 -1.19018,-0.152588 -2.83813,-0.152588 -2.65503,0 -5.12696,1.190186 -2.47192,1.159667 -4.76074,3.02124 v 24.200442 h -5.7373 V 69.565002 h 5.7373 v 5.035401 q 3.41797,-2.746582 6.01196,-3.875733 2.62452,-1.159668 5.34058,-1.159668 1.49536,0 2.16675,0.09155 0.67139,0.06104 2.01416,0.274658 z"
           style="font-style:normal;font-variant:normal;font-weight:normal;font-stretch:normal;font-size:62.5px;font-family:'Open Sans';-inkscape-font-specification:'Open Sans';fill:#4d4d4d"
           id="path3698"
           inkscape:connector-curvature="0" />
        <path
           d="m 335.53513,63.858215 h -6.46973 v -5.950927 h 6.46973 z m -0.36622,39.794925 h -5.7373 V 69.565002 h 5.7373 z"
           style="font-style:normal;font-variant:normal;font-weight:normal;font-stretch:normal;font-size:62.5px;font-family:'Open Sans';-inkscape-font-specification:'Open Sans';fill:#4d4d4d"
           id="path3700"
           inkscape:connector-curvature="0" />
        <path
           d="m 377.28317,103.65314 h -7.56836 l -13.67187,-14.923098 -3.72315,3.540039 v 11.383059 h -5.7373 V 56.167786 h 5.7373 v 30.456543 l 16.57105,-17.059327 h 7.23266 l -15.83862,15.747071 z"
           style="font-style:normal;font-variant:normal;font-weight:normal;font-stretch:normal;font-size:62.5px;font-family:'Open Sans';-inkscape-font-specification:'Open Sans';fill:#4d4d4d"
           id="path3702"
           inkscape:connector-curvature="0" />
        <path
           d="m 435.48019,71.945374 q 0,3.02124 -1.06811,5.615234 -1.0376,2.563476 -2.92969,4.455566 -2.34985,2.349854 -5.5542,3.540039 -3.20434,1.159668 -8.08716,1.159668 h -6.04248 v 16.937259 h -6.04248 V 58.212463 h 12.3291 q 4.08936,0 6.92749,0.701905 2.83814,0.671386 5.03541,2.13623 2.59399,1.739502 3.9978,4.333496 1.43432,2.593994 1.43432,6.56128 z m -6.28662,0.152587 q 0,-2.349853 -0.82397,-4.089355 -0.82398,-1.739502 -2.50244,-2.838135 -1.46485,-0.946045 -3.35694,-1.342773 -1.86157,-0.427246 -4.73022,-0.427246 h -5.98145 v 18.157959 h 5.09644 q 3.66211,0 5.95093,-0.640869 2.28882,-0.671387 3.72314,-2.105713 1.43433,-1.464844 2.01416,-3.082276 0.61035,-1.617431 0.61035,-3.631592 z"
           style="font-style:normal;font-variant:normal;font-weight:normal;font-stretch:normal;font-size:62.5px;font-family:'Open Sans';-inkscape-font-specification:'Open Sans';fill:#4d4d4d"
           id="path3704"
           inkscape:connector-curvature="0" />
        <path
           d="m 468.04245,103.65314 h -5.70679 v -3.63159 q -0.76294,0.51879 -2.07519,1.46484 -1.28174,0.91553 -2.50244,1.46484 -1.43433,0.70191 -3.2959,1.15967 -1.86157,0.48828 -4.36402,0.48828 -4.60815,0 -7.8125,-3.05176 -3.20434,-3.051753 -3.20434,-7.781978 0,-3.875733 1.64795,-6.256104 1.67846,-2.410888 4.76074,-3.784179 3.11279,-1.373291 7.47681,-1.861573 4.36401,-0.488281 9.36889,-0.732421 v -0.88501 q 0,-1.953125 -0.7019,-3.234863 -0.67139,-1.281739 -1.95313,-2.014161 -1.2207,-0.701904 -2.92968,-0.946045 -1.70899,-0.24414 -3.57056,-0.24414 -2.2583,0 -5.0354,0.610351 -2.7771,0.579834 -5.73731,1.708985 h -0.30517 v -5.828858 q 1.67847,-0.457763 4.85229,-1.00708 3.17383,-0.549316 6.25611,-0.549316 3.60107,0 6.2561,0.610351 2.68555,0.579834 4.63867,2.014161 1.92261,1.403808 2.92969,3.631591 1.00708,2.227784 1.00708,5.523682 z m -5.70679,-8.392337 v -9.490967 q -2.62451,0.152588 -6.19507,0.457764 -3.54003,0.305176 -5.61523,0.88501 -2.47192,0.701904 -3.9978,2.197265 -1.52588,1.464844 -1.52588,4.058838 0,2.929688 1.77002,4.425049 1.77002,1.464844 5.40161,1.464844 3.02124,0 5.52368,-1.159668 2.50244,-1.190186 4.63867,-2.838135 z"
           style="font-style:normal;font-variant:normal;font-weight:normal;font-stretch:normal;font-size:62.5px;font-family:'Open Sans';-inkscape-font-specification:'Open Sans';fill:#4d4d4d"
           id="path3706"
           inkscape:connector-curvature="0" />
        <path
           d="m 485.3154,63.858215 h -6.46973 v -5.950927 h 6.46973 z m -0.36621,39.794925 h -5.73731 V 69.565002 h 5.73731 z"
           style="font-style:normal;font-variant:normal;font-weight:normal;font-stretch:normal;font-size:62.5px;font-family:'Open Sans';-inkscape-font-specification:'Open Sans';fill:#4d4d4d"
           id="path3708"
           inkscape:connector-curvature="0" />
        <path
           d="m 525.62912,103.65314 h -7.23267 l -9.67407,-13.092044 -9.73511,13.092044 h -6.68335 l 13.30567,-16.998294 -13.1836,-17.089844 h 7.23267 l 9.61304,12.878418 9.64355,-12.878418 h 6.71387 L 512.2319,86.34967 Z"
           style="font-style:normal;font-variant:normal;font-weight:normal;font-stretch:normal;font-size:62.5px;font-family:'Open Sans';-inkscape-font-specification:'Open Sans';fill:#4d4d4d"
           id="path3710"
           inkscape:connector-curvature="0" />
        <path
           d="m 559.59518,103.65314 h -5.70678 v -3.63159 q -0.76294,0.51879 -2.0752,1.46484 -1.28174,0.91553 -2.50244,1.46484 -1.43433,0.70191 -3.2959,1.15967 -1.86157,0.48828 -4.36401,0.48828 -4.60816,0 -7.8125,-3.05176 -3.20435,-3.051753 -3.20435,-7.781978 0,-3.875733 1.64795,-6.256104 1.67847,-2.410888 4.76074,-3.784179 3.1128,-1.373291 7.47681,-1.861573 4.36401,-0.488281 9.3689,-0.732421 v -0.88501 q 0,-1.953125 -0.70191,-3.234863 -0.67138,-1.281739 -1.95312,-2.014161 -1.22071,-0.701904 -2.92969,-0.946045 -1.70898,-0.24414 -3.57056,-0.24414 -2.2583,0 -5.0354,0.610351 -2.7771,0.579834 -5.7373,1.708985 h -0.30518 v -5.828858 q 1.67847,-0.457763 4.8523,-1.00708 3.17383,-0.549316 6.2561,-0.549316 3.60108,0 6.2561,0.610351 2.68555,0.579834 4.63868,2.014161 1.9226,1.403808 2.92968,3.631591 1.00708,2.227784 1.00708,5.523682 z m -5.70678,-8.392337 v -9.490967 q -2.62451,0.152588 -6.19507,0.457764 -3.54004,0.305176 -5.61524,0.88501 -2.47192,0.701904 -3.9978,2.197265 -1.52588,1.464844 -1.52588,4.058838 0,2.929688 1.77002,4.425049 1.77002,1.464844 5.40161,1.464844 3.02124,0 5.52369,-1.159668 2.50244,-1.190186 4.63867,-2.838135 z m 5.24902,-41.015625 q -0.33569,4.638672 -2.34985,6.988526 -2.01416,2.349853 -5.40161,2.349853 -1.64795,0 -3.05176,-0.579834 -1.40381,-0.610351 -2.65503,-1.739502 -1.43433,-1.312256 -2.44141,-1.953125 -0.97656,-0.671387 -2.16675,-0.671387 -1.58691,0 -2.38037,1.373291 -0.79345,1.373292 -0.91552,3.692627 h -3.99781 q 0.24414,-4.608154 2.41089,-6.958007 2.16675,-2.349854 5.31006,-2.349854 1.52588,0 2.92969,0.610352 1.43432,0.579834 2.71606,1.678466 1.43433,1.251221 2.53296,1.89209 1.12915,0.610352 2.13623,0.610352 1.5564,0 2.41089,-1.403809 0.88501,-1.403808 0.97656,-3.540039 z"
           style="font-style:normal;font-variant:normal;font-weight:normal;font-stretch:normal;font-size:62.5px;font-family:'Open Sans';-inkscape-font-specification:'Open Sans';fill:#4d4d4d"
           id="path3712"
           inkscape:connector-curvature="0" />
        <path
           d="m 599.75632,86.624329 q 0,8.331298 -4.27246,13.153076 -4.27246,4.821775 -11.4441,4.821775 -7.23266,0 -11.50512,-4.821775 -4.24195,-4.821778 -4.24195,-13.153076 0,-8.331299 4.24195,-13.153077 4.27246,-4.852294 11.50512,-4.852294 7.17164,0 11.4441,4.852294 4.27246,4.821778 4.27246,13.153077 z m -5.92041,0 q 0,-6.622315 -2.594,-9.826661 -2.59399,-3.234863 -7.20215,-3.234863 -4.66919,0 -7.26318,3.234863 -2.56348,3.204346 -2.56348,9.826661 0,6.408691 2.594,9.735107 2.59399,3.295898 7.23266,3.295898 4.57764,0 7.17164,-3.26538 2.62451,-3.295899 2.62451,-9.765625 z"
           style="font-style:normal;font-variant:normal;font-weight:normal;font-stretch:normal;font-size:62.5px;font-family:'Open Sans';-inkscape-font-specification:'Open Sans';fill:#4d4d4d"
           id="path3714"
           inkscape:connector-curvature="0" />
      </g>
    </a>
    <g
       aria-label="Criação de sites responsivos"
       style="font-style:normal;font-weight:normal;font-size:40px;line-height:125%;font-family:sans-serif;letter-spacing:0px;word-spacing:0px;fill:#000000;fill-opacity:1;stroke:none;stroke-width:1px;stroke-linecap:butt;stroke-linejoin:miter;stroke-opacity:1"
       id="text4266">
      <path
         d="m 283.15976,136.73395 q -0.67139,0.29297 -1.2207,0.54931 -0.53711,0.25635 -1.41602,0.53711 -0.74463,0.23194 -1.62353,0.39063 -0.8667,0.1709 -1.91651,0.1709 -1.97754,0 -3.60107,-0.54932 -1.61133,-0.56152 -2.80762,-1.7456 -1.17187,-1.15967 -1.83105,-2.9419 -0.65918,-1.79443 -0.65918,-4.1626 0,-2.24609 0.63476,-4.01611 0.63477,-1.77002 1.83106,-2.99072 1.15966,-1.18409 2.79541,-1.80664 1.64795,-0.62256 3.6499,-0.62256 1.46484,0 2.91748,0.354 1.46484,0.35401 3.24707,1.24512 v 2.86865 h -0.18311 q -1.50146,-1.25732 -2.97851,-1.83105 -1.47705,-0.57373 -3.16162,-0.57373 -1.3794,0 -2.49024,0.45166 -1.09863,0.43945 -1.96533,1.37939 -0.84228,0.91553 -1.31836,2.31934 -0.46387,1.3916 -0.46387,3.22265 0,1.91651 0.5127,3.2959 0.5249,1.3794 1.34277,2.2461 0.8545,0.90332 1.98975,1.34277 1.14746,0.42724 2.41699,0.42724 1.74561,0 3.27149,-0.59814 1.52587,-0.59814 2.85644,-1.79443 h 0.1709 z"
         style="font-style:normal;font-variant:normal;font-weight:300;font-stretch:normal;font-size:25px;font-family:'Open Sans';-inkscape-font-specification:'Open Sans Light';fill:#666666"
         id="path3717" />
      <path
         d="m 294.92734,126.91949 h -0.12207 q -0.5127,-0.12207 -1.00098,-0.17089 -0.47607,-0.061 -1.13525,-0.061 -1.06201,0 -2.05078,0.47608 -0.98877,0.46386 -1.9043,1.20849 v 9.68018 h -2.29492 v -13.63526 h 2.29492 v 2.01416 q 1.36719,-1.09863 2.40478,-1.55029 1.04981,-0.46387 2.13623,-0.46387 0.59815,0 0.8667,0.0366 0.26856,0.0244 0.80567,0.10987 z"
         style="font-style:normal;font-variant:normal;font-weight:300;font-stretch:normal;font-size:25px;font-family:'Open Sans';-inkscape-font-specification:'Open Sans Light';fill:#666666"
         id="path3719" />
      <path
         d="m 299.57822,122.13434 h -2.58789 v -2.38037 h 2.58789 z m -0.14649,15.91797 h -2.29492 v -13.63526 h 2.29492 z"
         style="font-style:normal;font-variant:normal;font-weight:300;font-stretch:normal;font-size:25px;font-family:'Open Sans';-inkscape-font-specification:'Open Sans Light';fill:#666666"
         id="path3721" />
      <path
         d="m 314.49521,138.05231 h -2.28272 v -1.45264 q -0.30517,0.20752 -0.83007,0.58594 -0.5127,0.36621 -1.00098,0.58594 -0.57373,0.28076 -1.31836,0.46386 -0.74463,0.19532 -1.74561,0.19532 -1.84326,0 -3.125,-1.22071 -1.28173,-1.2207 -1.28173,-3.11279 0,-1.55029 0.65918,-2.50244 0.67138,-0.96436 1.90429,-1.51367 1.24512,-0.54932 2.99073,-0.74463 1.7456,-0.19532 3.74755,-0.29297 v -0.35401 q 0,-0.78125 -0.28076,-1.29394 -0.26855,-0.5127 -0.78125,-0.80567 -0.48828,-0.28076 -1.17187,-0.37841 -0.6836,-0.0977 -1.42823,-0.0977 -0.90332,0 -2.01416,0.24414 -1.11084,0.23193 -2.29492,0.68359 h -0.12207 v -2.33154 q 0.67139,-0.1831 1.94092,-0.40283 1.26953,-0.21973 2.50244,-0.21973 1.44043,0 2.50244,0.24414 1.07422,0.23194 1.85547,0.80567 0.76904,0.56152 1.17188,1.45263 0.40283,0.89112 0.40283,2.20948 z m -2.28272,-3.35694 v -3.79638 q -1.0498,0.061 -2.47802,0.1831 -1.41602,0.12207 -2.2461,0.35401 -0.98877,0.28076 -1.59912,0.8789 -0.61035,0.58594 -0.61035,1.62354 0,1.17187 0.70801,1.77002 0.70801,0.58593 2.16064,0.58593 1.2085,0 2.20948,-0.46386 1.00097,-0.47608 1.85546,-1.13526 z"
         style="font-style:normal;font-variant:normal;font-weight:300;font-stretch:normal;font-size:25px;font-family:'Open Sans';-inkscape-font-specification:'Open Sans Light';fill:#666666"
         id="path3723" />
      <path
         d="m 329.02158,137.19781 q -0.40284,0.18311 -0.87891,0.37842 -0.46387,0.18311 -0.81787,0.29297 0.0366,0.23194 0.061,0.57373 0.0366,0.35401 0.0366,0.6958 0,1.97754 -1.12304,3.02735 -1.11084,1.0498 -2.89307,1.0498 -0.45166,0 -1.15967,-0.0855 -0.708,-0.0854 -1.25732,-0.23193 v -1.95313 h 0.10986 q 0.31739,0.12207 0.85449,0.28077 0.53711,0.15869 1.14747,0.15869 1.26953,0 1.86767,-0.47608 0.59815,-0.47607 0.59815,-1.55029 0,-0.26856 -0.0244,-0.54932 -0.0122,-0.28076 -0.0366,-0.5249 -0.19531,0.0244 -0.37842,0.0488 -0.1709,0.0244 -0.47607,0.0244 -1.47705,0 -2.70996,-0.42724 -1.23291,-0.43946 -2.11182,-1.31836 -0.89111,-0.87891 -1.37939,-2.22168 -0.48828,-1.34278 -0.48828,-3.13721 0,-3.34473 1.83105,-5.24902 1.84326,-1.9043 4.8584,-1.9043 1.17187,0 2.29492,0.32959 1.13525,0.32959 2.0752,0.80566 v 2.55127 h -0.12207 q -1.04981,-0.81787 -2.17286,-1.25732 -1.11084,-0.43945 -2.17285,-0.43945 -1.95312,0 -3.08838,1.31836 -1.12304,1.30615 -1.12304,3.84521 0,2.46582 1.09863,3.79639 1.11084,1.31836 3.11279,1.31836 0.6958,0 1.41602,-0.18311 0.72021,-0.1831 1.29394,-0.47607 0.50049,-0.25635 0.93994,-0.53711 0.43946,-0.29297 0.69581,-0.50049 h 0.12207 z"
         style="font-style:normal;font-variant:normal;font-weight:300;font-stretch:normal;font-size:25px;font-family:'Open Sans';-inkscape-font-specification:'Open Sans Light';fill:#666666"
         id="path3725" />
      <path
         d="m 342.57138,138.05231 h -2.28271 v -1.45264 q -0.30518,0.20752 -0.83008,0.58594 -0.5127,0.36621 -1.00098,0.58594 -0.57373,0.28076 -1.31836,0.46386 -0.74463,0.19532 -1.7456,0.19532 -1.84327,0 -3.125,-1.22071 -1.28174,-1.2207 -1.28174,-3.11279 0,-1.55029 0.65918,-2.50244 0.67138,-0.96436 1.90429,-1.51367 1.24512,-0.54932 2.99073,-0.74463 1.7456,-0.19532 3.74756,-0.29297 v -0.35401 q 0,-0.78125 -0.28077,-1.29394 -0.26855,-0.5127 -0.78125,-0.80567 -0.48828,-0.28076 -1.17187,-0.37841 -0.68359,-0.0977 -1.42822,-0.0977 -0.90332,0 -2.01416,0.24414 -1.11084,0.23193 -2.29493,0.68359 h -0.12207 v -2.33154 q 0.67139,-0.1831 1.94092,-0.40283 1.26953,-0.21973 2.50244,-0.21973 1.44043,0 2.50244,0.24414 1.07422,0.23194 1.85547,0.80567 0.76905,0.56152 1.17188,1.45263 0.40283,0.89112 0.40283,2.20948 z m -2.28271,-3.35694 v -3.79638 q -1.04981,0.061 -2.47803,0.1831 -1.41602,0.12207 -2.2461,0.35401 -0.98876,0.28076 -1.59912,0.8789 -0.61035,0.58594 -0.61035,1.62354 0,1.17187 0.70801,1.77002 0.70801,0.58593 2.16064,0.58593 1.2085,0 2.20948,-0.46386 1.00097,-0.47608 1.85547,-1.13526 z m 2.09961,-16.40625 q -0.13428,1.85547 -0.93995,2.79541 -0.80566,0.93995 -2.16064,0.93995 -0.65918,0 -1.2207,-0.23194 -0.56153,-0.24414 -1.06202,-0.6958 -0.57373,-0.5249 -0.97656,-0.78125 -0.39062,-0.26855 -0.8667,-0.26855 -0.63476,0 -0.95215,0.54931 -0.31738,0.54932 -0.36621,1.47705 h -1.59912 q 0.0977,-1.84326 0.96436,-2.7832 0.8667,-0.93994 2.12402,-0.93994 0.61035,0 1.17188,0.24414 0.57373,0.23193 1.08642,0.67139 0.57373,0.50048 1.01319,0.75683 0.45166,0.24414 0.85449,0.24414 0.62256,0 0.96435,-0.56152 0.35401,-0.56152 0.39063,-1.41602 z"
         style="font-style:normal;font-variant:normal;font-weight:300;font-stretch:normal;font-size:25px;font-family:'Open Sans';-inkscape-font-specification:'Open Sans Light';fill:#666666"
         id="path3727" />
      <path
         d="m 358.63583,131.24078 q 0,3.33252 -1.70898,5.26123 -1.70899,1.92872 -4.57764,1.92872 -2.89306,0 -4.60205,-1.92872 -1.69678,-1.92871 -1.69678,-5.26123 0,-3.33252 1.69678,-5.26123 1.70899,-1.94091 4.60205,-1.94091 2.86865,0 4.57764,1.94091 1.70898,1.92871 1.70898,5.26123 z m -2.36816,0 q 0,-2.64892 -1.0376,-3.93066 -1.0376,-1.29395 -2.88086,-1.29395 -1.86767,0 -2.90527,1.29395 -1.02539,1.28174 -1.02539,3.93066 0,2.56348 1.0376,3.89405 1.03759,1.31836 2.89306,1.31836 1.83106,0 2.86865,-1.30616 1.04981,-1.31836 1.04981,-3.90625 z"
         style="font-style:normal;font-variant:normal;font-weight:300;font-stretch:normal;font-size:25px;font-family:'Open Sans';-inkscape-font-specification:'Open Sans Light';fill:#666666"
         id="path3729" />
      <path
         d="M 382.04892,138.05231 H 379.754 v -1.42823 q -0.98877,0.8545 -2.06299,1.33057 -1.07422,0.47608 -2.33154,0.47608 -2.44141,0 -3.88184,-1.87989 -1.42822,-1.87988 -1.42822,-5.2124 0,-1.7334 0.48828,-3.08838 0.50049,-1.35498 1.34277,-2.30713 0.83008,-0.92773 1.92871,-1.41601 1.11084,-0.48828 2.29493,-0.48828 1.07421,0 1.90429,0.23193 0.83008,0.21973 1.74561,0.6958 v -5.9082 h 2.29492 z m -2.29492,-3.35694 v -7.8247 q -0.92774,-0.41504 -1.66016,-0.57373 -0.73242,-0.1587 -1.59912,-0.1587 -1.92871,0 -3.00293,1.34278 -1.07422,1.34277 -1.07422,3.80859 0,2.4292 0.83008,3.69873 0.83008,1.25733 2.66113,1.25733 0.97657,0 1.97754,-0.42725 1.00098,-0.43945 1.86768,-1.12305 z"
         style="font-style:normal;font-variant:normal;font-weight:300;font-stretch:normal;font-size:25px;font-family:'Open Sans';-inkscape-font-specification:'Open Sans Light';fill:#666666"
         id="path3731" />
      <path
         d="m 397.9791,131.47272 h -10.04639 q 0,1.25732 0.37842,2.19726 0.37841,0.92774 1.03759,1.52588 0.63477,0.58594 1.50147,0.87891 0.87891,0.29297 1.92871,0.29297 1.3916,0 2.79541,-0.54932 1.41602,-0.56152 2.01416,-1.09863 h 0.12207 v 2.50244 q -1.15967,0.48828 -2.36816,0.81787 -1.2085,0.32959 -2.53907,0.32959 -3.39355,0 -5.29785,-1.83105 -1.90429,-1.84327 -1.90429,-5.22461 0,-3.34473 1.81884,-5.31006 1.83106,-1.96533 4.80957,-1.96533 2.75879,0 4.24805,1.61132 1.50147,1.61133 1.50147,4.57764 z m -2.23389,-1.75782 q -0.0122,-1.80664 -0.91553,-2.79541 -0.89111,-0.98876 -2.72217,-0.98876 -1.84326,0 -2.94189,1.08642 -1.08643,1.08643 -1.23291,2.69775 z"
         style="font-style:normal;font-variant:normal;font-weight:300;font-stretch:normal;font-size:25px;font-family:'Open Sans';-inkscape-font-specification:'Open Sans Light';fill:#666666"
         id="path3733" />
      <path
         d="m 419.98837,134.12164 q 0,1.86768 -1.55029,3.06397 -1.53809,1.19629 -4.21143,1.19629 -1.51367,0 -2.7832,-0.35401 -1.25732,-0.36621 -2.11182,-0.79345 v -2.57569 h 0.12207 q 1.08643,0.81787 2.417,1.30615 1.33056,0.47608 2.55127,0.47608 1.51367,0 2.36816,-0.48828 0.85449,-0.48828 0.85449,-1.53809 0,-0.80566 -0.46386,-1.2207 -0.46387,-0.41504 -1.78223,-0.70801 -0.48828,-0.10986 -1.28174,-0.25635 -0.78125,-0.14648 -1.42822,-0.31738 -1.79444,-0.47607 -2.55127,-1.3916 -0.74463,-0.92774 -0.74463,-2.27051 0,-0.84228 0.3418,-1.58691 0.354,-0.74463 1.06201,-1.33057 0.68359,-0.57373 1.7334,-0.90332 1.06201,-0.3418 2.36816,-0.3418 1.2207,0 2.46582,0.30518 1.25733,0.29297 2.0874,0.72021 v 2.45362 h -0.12207 q -0.8789,-0.64698 -2.13623,-1.08643 -1.25732,-0.45166 -2.46582,-0.45166 -1.25732,0 -2.12402,0.48828 -0.8667,0.47608 -0.8667,1.42823 0,0.84228 0.5249,1.26953 0.5127,0.42724 1.66016,0.6958 0.63476,0.14648 1.41601,0.29297 0.79346,0.14648 1.31836,0.26855 1.59912,0.36621 2.46582,1.25732 0.8667,0.90333 0.8667,2.39258 z"
         style="font-style:normal;font-variant:normal;font-weight:300;font-stretch:normal;font-size:25px;font-family:'Open Sans';-inkscape-font-specification:'Open Sans Light';fill:#666666"
         id="path3735" />
      <path
         d="m 425.75009,122.13434 h -2.58789 v -2.38037 h 2.58789 z m -0.14648,15.91797 h -2.29492 v -13.63526 h 2.29492 z"
         style="font-style:normal;font-variant:normal;font-weight:300;font-stretch:normal;font-size:25px;font-family:'Open Sans';-inkscape-font-specification:'Open Sans Light';fill:#666666"
         id="path3737" />
      <path
         d="m 437.15146,137.93024 q -0.64697,0.1709 -1.41602,0.28076 -0.75683,0.10986 -1.35498,0.10986 -2.0874,0 -3.17383,-1.12305 -1.08642,-1.12304 -1.08642,-3.60107 v -7.25098 h -1.55029 v -1.92871 h 1.55029 v -3.91845 h 2.29492 v 3.91845 h 4.73633 v 1.92871 h -4.73633 v 6.21338 q 0,1.07422 0.0488,1.68457 0.0488,0.59815 0.3418,1.12305 0.26855,0.48828 0.73242,0.72022 0.47607,0.21972 1.44043,0.21972 0.56152,0 1.17187,-0.15869 0.61035,-0.1709 0.87891,-0.28076 h 0.12207 z"
         style="font-style:normal;font-variant:normal;font-weight:300;font-stretch:normal;font-size:25px;font-family:'Open Sans';-inkscape-font-specification:'Open Sans Light';fill:#666666"
         id="path3739" />
      <path
         d="m 451.34824,131.47272 h -10.04639 q 0,1.25732 0.37842,2.19726 0.37842,0.92774 1.03759,1.52588 0.63477,0.58594 1.50147,0.87891 0.87891,0.29297 1.92871,0.29297 1.3916,0 2.79541,-0.54932 1.41602,-0.56152 2.01416,-1.09863 h 0.12207 v 2.50244 q -1.15967,0.48828 -2.36816,0.81787 -1.2085,0.32959 -2.53907,0.32959 -3.39355,0 -5.29785,-1.83105 -1.90429,-1.84327 -1.90429,-5.22461 0,-3.34473 1.81884,-5.31006 1.83106,-1.96533 4.80957,-1.96533 2.75879,0 4.24805,1.61132 1.50147,1.61133 1.50147,4.57764 z m -2.23389,-1.75782 q -0.0122,-1.80664 -0.91553,-2.79541 -0.89111,-0.98876 -2.72217,-0.98876 -1.84326,0 -2.94189,1.08642 -1.08643,1.08643 -1.23291,2.69775 z"
         style="font-style:normal;font-variant:normal;font-weight:300;font-stretch:normal;font-size:25px;font-family:'Open Sans';-inkscape-font-specification:'Open Sans Light';fill:#666666"
         id="path3741" />
      <path
         d="m 464.56845,134.12164 q 0,1.86768 -1.55029,3.06397 -1.53809,1.19629 -4.21143,1.19629 -1.51367,0 -2.7832,-0.35401 -1.25733,-0.36621 -2.11182,-0.79345 v -2.57569 h 0.12207 q 1.08643,0.81787 2.417,1.30615 1.33056,0.47608 2.55126,0.47608 1.51368,0 2.36817,-0.48828 0.85449,-0.48828 0.85449,-1.53809 0,-0.80566 -0.46387,-1.2207 -0.46386,-0.41504 -1.78222,-0.70801 -0.48828,-0.10986 -1.28174,-0.25635 -0.78125,-0.14648 -1.42822,-0.31738 -1.79444,-0.47607 -2.55127,-1.3916 -0.74463,-0.92774 -0.74463,-2.27051 0,-0.84228 0.34179,-1.58691 0.35401,-0.74463 1.06202,-1.33057 0.68359,-0.57373 1.73339,-0.90332 1.06202,-0.3418 2.36817,-0.3418 1.2207,0 2.46582,0.30518 1.25732,0.29297 2.0874,0.72021 v 2.45362 h -0.12207 q -0.87891,-0.64698 -2.13623,-1.08643 -1.25732,-0.45166 -2.46582,-0.45166 -1.25732,0 -2.12402,0.48828 -0.8667,0.47608 -0.8667,1.42823 0,0.84228 0.5249,1.26953 0.5127,0.42724 1.66016,0.6958 0.63476,0.14648 1.41601,0.29297 0.79346,0.14648 1.31836,0.26855 1.59912,0.36621 2.46582,1.25732 0.8667,0.90333 0.8667,2.39258 z"
         style="font-style:normal;font-variant:normal;font-weight:300;font-stretch:normal;font-size:25px;font-family:'Open Sans';-inkscape-font-specification:'Open Sans Light';fill:#666666"
         id="path3743" />
      <path
         d="m 485.16171,126.91949 h -0.12207 q -0.51269,-0.12207 -1.00097,-0.17089 -0.47608,-0.061 -1.13526,-0.061 -1.06201,0 -2.05078,0.47608 -0.98877,0.46386 -1.9043,1.20849 v 9.68018 h -2.29492 v -13.63526 h 2.29492 v 2.01416 q 1.36719,-1.09863 2.40479,-1.55029 1.0498,-0.46387 2.13623,-0.46387 0.59814,0 0.8667,0.0366 0.26855,0.0244 0.80566,0.10987 z"
         style="font-style:normal;font-variant:normal;font-weight:300;font-stretch:normal;font-size:25px;font-family:'Open Sans';-inkscape-font-specification:'Open Sans Light';fill:#666666"
         id="path3745" />
      <path
         d="m 498.76035,131.47272 h -10.04639 q 0,1.25732 0.37842,2.19726 0.37841,0.92774 1.03759,1.52588 0.63477,0.58594 1.50147,0.87891 0.87891,0.29297 1.92871,0.29297 1.3916,0 2.79541,-0.54932 1.41602,-0.56152 2.01416,-1.09863 h 0.12207 v 2.50244 q -1.15967,0.48828 -2.36816,0.81787 -1.2085,0.32959 -2.53907,0.32959 -3.39355,0 -5.29785,-1.83105 -1.90429,-1.84327 -1.90429,-5.22461 0,-3.34473 1.81884,-5.31006 1.83106,-1.96533 4.80957,-1.96533 2.75879,0 4.24805,1.61132 1.50147,1.61133 1.50147,4.57764 z m -2.23389,-1.75782 q -0.0122,-1.80664 -0.91553,-2.79541 -0.89111,-0.98876 -2.72217,-0.98876 -1.84326,0 -2.94189,1.08642 -1.08643,1.08643 -1.23291,2.69775 z"
         style="font-style:normal;font-variant:normal;font-weight:300;font-stretch:normal;font-size:25px;font-family:'Open Sans';-inkscape-font-specification:'Open Sans Light';fill:#666666"
         id="path3747" />
      <path
         d="m 511.98056,134.12164 q 0,1.86768 -1.55029,3.06397 -1.53809,1.19629 -4.21143,1.19629 -1.51367,0 -2.7832,-0.35401 -1.25733,-0.36621 -2.11182,-0.79345 v -2.57569 h 0.12207 q 1.08643,0.81787 2.41699,1.30615 1.33057,0.47608 2.55127,0.47608 1.51368,0 2.36817,-0.48828 0.85449,-0.48828 0.85449,-1.53809 0,-0.80566 -0.46387,-1.2207 -0.46386,-0.41504 -1.78222,-0.70801 -0.48828,-0.10986 -1.28174,-0.25635 -0.78125,-0.14648 -1.42822,-0.31738 -1.79444,-0.47607 -2.55127,-1.3916 -0.74463,-0.92774 -0.74463,-2.27051 0,-0.84228 0.34179,-1.58691 0.35401,-0.74463 1.06202,-1.33057 0.68359,-0.57373 1.73339,-0.90332 1.06202,-0.3418 2.36817,-0.3418 1.2207,0 2.46582,0.30518 1.25732,0.29297 2.0874,0.72021 v 2.45362 h -0.12207 q -0.87891,-0.64698 -2.13623,-1.08643 -1.25732,-0.45166 -2.46582,-0.45166 -1.25732,0 -2.12402,0.48828 -0.8667,0.47608 -0.8667,1.42823 0,0.84228 0.5249,1.26953 0.51269,0.42724 1.66016,0.6958 0.63476,0.14648 1.41601,0.29297 0.79346,0.14648 1.31836,0.26855 1.59912,0.36621 2.46582,1.25732 0.8667,0.90333 0.8667,2.39258 z"
         style="font-style:normal;font-variant:normal;font-weight:300;font-stretch:normal;font-size:25px;font-family:'Open Sans';-inkscape-font-specification:'Open Sans Light';fill:#666666"
         id="path3749" />
      <path
         d="m 527.27597,131.06989 q 0,1.66015 -0.47607,3.03955 -0.47608,1.36718 -1.34278,2.31933 -0.80566,0.90332 -1.90429,1.40381 -1.08643,0.48828 -2.30713,0.48828 -1.06201,0 -1.92871,-0.23193 -0.8545,-0.23194 -1.74561,-0.72022 v 5.71289 h -2.29492 v -18.66455 h 2.29492 v 1.42823 q 0.91553,-0.76905 2.05078,-1.28174 1.14746,-0.5249 2.44141,-0.5249 2.46582,0 3.83301,1.86767 1.37939,1.85547 1.37939,5.16358 z m -2.36816,0.061 q 0,-2.46582 -0.84229,-3.68652 -0.84228,-1.22071 -2.58789,-1.22071 -0.98877,0 -1.98975,0.42725 -1.00097,0.42725 -1.9165,1.12305 v 7.72705 q 0.97656,0.43945 1.67236,0.59814 0.70801,0.15869 1.59912,0.15869 1.91651,0 2.99073,-1.29394 1.07422,-1.29395 1.07422,-3.83301 z"
         style="font-style:normal;font-variant:normal;font-weight:300;font-stretch:normal;font-size:25px;font-family:'Open Sans';-inkscape-font-specification:'Open Sans Light';fill:#666666"
         id="path3751" />
      <path
         d="m 542.47372,131.24078 q 0,3.33252 -1.70898,5.26123 -1.70898,1.92872 -4.57764,1.92872 -2.89306,0 -4.60205,-1.92872 -1.69677,-1.92871 -1.69677,-5.26123 0,-3.33252 1.69677,-5.26123 1.70899,-1.94091 4.60205,-1.94091 2.86866,0 4.57764,1.94091 1.70898,1.92871 1.70898,5.26123 z m -2.36816,0 q 0,-2.64892 -1.0376,-3.93066 -1.0376,-1.29395 -2.88086,-1.29395 -1.86767,0 -2.90527,1.29395 -1.02539,1.28174 -1.02539,3.93066 0,2.56348 1.0376,3.89405 1.03759,1.31836 2.89306,1.31836 1.83106,0 2.86866,-1.30616 1.0498,-1.31836 1.0498,-3.90625 z"
         style="font-style:normal;font-variant:normal;font-weight:300;font-stretch:normal;font-size:25px;font-family:'Open Sans';-inkscape-font-specification:'Open Sans Light';fill:#666666"
         id="path3753" />
      <path
         d="m 557.43954,138.05231 h -2.29492 v -7.76367 q 0,-0.93995 -0.10986,-1.75782 -0.10986,-0.83008 -0.40283,-1.29394 -0.30518,-0.5127 -0.87891,-0.75684 -0.57373,-0.25635 -1.48926,-0.25635 -0.93994,0 -1.96533,0.46387 -1.02539,0.46387 -1.96533,1.18408 v 10.18067 h -2.29492 v -13.63526 h 2.29492 v 1.51368 q 1.07422,-0.89112 2.22168,-1.39161 1.14746,-0.50048 2.35596,-0.50048 2.20947,0 3.36914,1.33056 1.15966,1.33057 1.15966,3.83301 z"
         style="font-style:normal;font-variant:normal;font-weight:300;font-stretch:normal;font-size:25px;font-family:'Open Sans';-inkscape-font-specification:'Open Sans Light';fill:#666666"
         id="path3755" />
      <path
         d="m 571.5997,134.12164 q 0,1.86768 -1.55029,3.06397 -1.53809,1.19629 -4.21143,1.19629 -1.51367,0 -2.7832,-0.35401 -1.25733,-0.36621 -2.11182,-0.79345 v -2.57569 h 0.12207 q 1.08643,0.81787 2.417,1.30615 1.33056,0.47608 2.55126,0.47608 1.51368,0 2.36817,-0.48828 0.85449,-0.48828 0.85449,-1.53809 0,-0.80566 -0.46387,-1.2207 -0.46386,-0.41504 -1.78222,-0.70801 -0.48828,-0.10986 -1.28174,-0.25635 -0.78125,-0.14648 -1.42822,-0.31738 -1.79444,-0.47607 -2.55127,-1.3916 -0.74463,-0.92774 -0.74463,-2.27051 0,-0.84228 0.34179,-1.58691 0.35401,-0.74463 1.06202,-1.33057 0.68359,-0.57373 1.73339,-0.90332 1.06202,-0.3418 2.36817,-0.3418 1.2207,0 2.46582,0.30518 1.25732,0.29297 2.0874,0.72021 v 2.45362 h -0.12207 q -0.87891,-0.64698 -2.13623,-1.08643 -1.25732,-0.45166 -2.46582,-0.45166 -1.25732,0 -2.12402,0.48828 -0.8667,0.47608 -0.8667,1.42823 0,0.84228 0.5249,1.26953 0.5127,0.42724 1.66016,0.6958 0.63476,0.14648 1.41601,0.29297 0.79346,0.14648 1.31836,0.26855 1.59912,0.36621 2.46582,1.25732 0.8667,0.90333 0.8667,2.39258 z"
         style="font-style:normal;font-variant:normal;font-weight:300;font-stretch:normal;font-size:25px;font-family:'Open Sans';-inkscape-font-specification:'Open Sans Light';fill:#666666"
         id="path3757" />
      <path
         d="m 577.36142,122.13434 h -2.58789 v -2.38037 h 2.58789 z m -0.14648,15.91797 h -2.29493 v -13.63526 h 2.29493 z"
         style="font-style:normal;font-variant:normal;font-weight:300;font-stretch:normal;font-size:25px;font-family:'Open Sans';-inkscape-font-specification:'Open Sans Light';fill:#666666"
         id="path3759" />
      <path
         d="m 593.4747,124.41705 -5.51758,13.63526 h -2.30713 l -5.48095,-13.63526 h 2.49023 l 4.22363,10.85205 4.18702,-10.85205 z"
         style="font-style:normal;font-variant:normal;font-weight:300;font-stretch:normal;font-size:25px;font-family:'Open Sans';-inkscape-font-specification:'Open Sans Light';fill:#666666"
         id="path3761" />
      <path
         d="m 607.90341,131.24078 q 0,3.33252 -1.70898,5.26123 -1.70899,1.92872 -4.57764,1.92872 -2.89307,0 -4.60205,-1.92872 -1.69678,-1.92871 -1.69678,-5.26123 0,-3.33252 1.69678,-5.26123 1.70898,-1.94091 4.60205,-1.94091 2.86865,0 4.57764,1.94091 1.70898,1.92871 1.70898,5.26123 z m -2.36816,0 q 0,-2.64892 -1.0376,-3.93066 -1.0376,-1.29395 -2.88086,-1.29395 -1.86768,0 -2.90527,1.29395 -1.02539,1.28174 -1.02539,3.93066 0,2.56348 1.03759,3.89405 1.0376,1.31836 2.89307,1.31836 1.83106,0 2.86865,-1.30616 1.04981,-1.31836 1.04981,-3.90625 z"
         style="font-style:normal;font-variant:normal;font-weight:300;font-stretch:normal;font-size:25px;font-family:'Open Sans';-inkscape-font-specification:'Open Sans Light';fill:#666666"
         id="path3763" />
      <path
         d="m 621.20908,134.12164 q 0,1.86768 -1.5503,3.06397 -1.53808,1.19629 -4.21142,1.19629 -1.51367,0 -2.78321,-0.35401 -1.25732,-0.36621 -2.11181,-0.79345 v -2.57569 h 0.12207 q 1.08642,0.81787 2.41699,1.30615 1.33057,0.47608 2.55127,0.47608 1.51367,0 2.36816,-0.48828 0.8545,-0.48828 0.8545,-1.53809 0,-0.80566 -0.46387,-1.2207 -0.46387,-0.41504 -1.78223,-0.70801 -0.48828,-0.10986 -1.28174,-0.25635 -0.78125,-0.14648 -1.42822,-0.31738 -1.79443,-0.47607 -2.55127,-1.3916 -0.74463,-0.92774 -0.74463,-2.27051 0,-0.84228 0.3418,-1.58691 0.354,-0.74463 1.06201,-1.33057 0.6836,-0.57373 1.7334,-0.90332 1.06201,-0.3418 2.36816,-0.3418 1.22071,0 2.46582,0.30518 1.25733,0.29297 2.08741,0.72021 v 2.45362 h -0.12207 q -0.87891,-0.64698 -2.13623,-1.08643 -1.25733,-0.45166 -2.46582,-0.45166 -1.25733,0 -2.12403,0.48828 -0.8667,0.47608 -0.8667,1.42823 0,0.84228 0.52491,1.26953 0.51269,0.42724 1.66015,0.6958 0.63477,0.14648 1.41602,0.29297 0.79345,0.14648 1.31836,0.26855 1.59912,0.36621 2.46582,1.25732 0.8667,0.90333 0.8667,2.39258 z"
         style="font-style:normal;font-variant:normal;font-weight:300;font-stretch:normal;font-size:25px;font-family:'Open Sans';-inkscape-font-specification:'Open Sans Light';fill:#666666"
         id="path3765" />
    </g>
  </g>
</svg>
